<?xml version="1.0" encoding="iso-8859-1"?>
<!-- Uploaded to: SVG Repo, www.svgrepo.com, Generator: SVG Repo Mixer Tools -->
<svg fill="#000000" height="800px" width="800px" version="1.1" id="Layer_1" xmlns="http://www.w3.org/2000/svg" xmlns:xlink="http://www.w3.org/1999/xlink" 
	 viewBox="0 0 512 512" xml:space="preserve">
<g>
	<g>
		<path d="M468.402,262.884L309.013,103.497c-9.927-9.928-23.127-15.395-37.166-15.395s-27.24,5.468-37.168,15.395
			c-9.928,9.928-15.395,23.127-15.395,37.166v106.825h-86.036V52.562C133.248,23.578,109.669,0,80.686,0
			C51.747,0,28.203,23.578,28.203,52.563v248.041c0,28.678,23.65,52.01,52.719,52.01l138.363,0.001v106.825
			c0,14.039,5.468,27.239,15.395,37.166c9.927,9.928,23.127,15.395,37.167,15.395s27.24-5.467,37.168-15.395l159.387-159.388v-0.001
			c9.928-9.928,15.395-23.127,15.395-37.166C483.797,286.013,478.329,272.813,468.402,262.884z M453.977,322.796v-0.001
			L294.59,482.182c-6.075,6.075-14.152,9.42-22.743,9.42c-8.591,0-16.669-3.346-22.743-9.421c-6.075-6.075-9.42-14.151-9.42-22.742
			V342.414c0-5.632-4.566-10.199-10.199-10.199l-148.563-0.001c-17.821,0-32.32-14.181-32.32-31.611V52.562
			c0-17.735,14.393-32.163,32.085-32.163c17.735,0,32.163,14.428,32.163,32.163v205.126c0,5.632,4.566,10.199,10.199,10.199h106.436
			c5.633,0,10.199-4.567,10.199-10.199V140.663c0-8.591,3.345-16.668,9.42-22.743c6.075-6.074,14.152-9.419,22.744-9.419
			c8.591,0,16.668,3.345,22.742,9.42l159.387,159.387c6.075,6.076,9.42,14.152,9.42,22.743S460.052,316.72,453.977,322.796z"/>
	</g>
</g>
<g>
	<g>
		<path d="M352.96,188.365l-3.019-3.018c-3.986-3.983-10.444-3.981-14.425,0.002c-3.982,3.985-3.981,10.443,0.002,14.425
			l3.019,3.018c1.992,1.991,4.601,2.986,7.211,2.986c2.611,0,5.222-0.997,7.214-2.988
			C356.944,198.805,356.943,192.347,352.96,188.365z"/>
	</g>
</g>
<g>
	<g>
		<path d="M445.548,280.951l-70.42-70.419c-3.985-3.982-10.441-3.982-14.425,0c-3.983,3.984-3.983,10.442,0,14.425l70.42,70.419
			c1.992,1.991,4.601,2.987,7.212,2.987c2.61,0,5.22-0.995,7.213-2.987C449.53,291.392,449.53,284.934,445.548,280.951z"/>
	</g>
</g>
</svg>